<svg
   viewBox="0 0 46.093418 56.750515"
   version="1.1"
   xmlns="http://www.w3.org/2000/svg"
   xmlns:svg="http://www.w3.org/2000/svg">
    <path fill="#0A0A0A"
       d="m 17.28007,0 -1.70274,5.55056 1.4671,4.78214 h 9.78183 6.94221 l 3.91242,12.74961 0.73381,2.391576 0.0119,0.0388 -16.73025,0.0398 -1.01389,0.003 -11.25151,0.0269 -0.21187,0.68988 0.0956,0.31161 -0.19172,5.2e-4 -0.8568,2.79311 -0.49402,1.61076 -0.30696,1.00045 L 2.78433,47.243596 0,56.317986 c 0.41676,0.16439 0.86787,0.30048 1.32343,0.43253 h 11.25978 l 2.91714,-9.50692 0.077,-0.25011 -4.53874,-14.79083 h 23.98355 l 0.2434,-0.24339 5.50922,-5.50923 -0.69866,-0.003 0.70435,-0.003 0.29197,-0.96325 0.72657,-2.398296 v -5.2e-4 l 0.4346,-1.43454 -0.003,-5.1e-4 L 45.726,10.2564 46.09342,9.05906 43.31426,0.00173 Z M 15.57733,5.55056 14.07975,0.67076 H 1.36373 l 2.96468,9.66194 3.93774,12.83281 0.74156,2.416896 0.42323,-5.1e-4 0.76688,-2.499586 3.9119,-12.74961 z" />
</svg>