<svg width="512" height="512" viewBox="0 0 512 512" xmlns="http://www.w3.org/2000/svg">
    <path d="M268.92 256.1c70.83 37.14 111.22 77.34 121.17 108 3.35 13.33-10.48 18.27-20.09 8.91-56-54.5-58.74-58.39-106.15-79.83-20.08-9.16-39.51 23.24-45.22 28.09-5.71 4.85-14.01-1.41-11.81-7.39 2.2-5.98 27.37-26.15 26.93-43.09-.59-22.87-84.22-107.49-100.07-118.79-19.98-16.65-4.64-28.26 8.81-21.54 54.16 28.35 99.1 78.6 118.1 118.34 3.44-1.41 6.24-1.43 7.51-.59.84.56 3.05 3.16.81 7.88z" fill="#FAFAFA"/>
</svg>